<svg width="0" height="0" class="hidden">
  <symbol xmlns="http://www.w3.org/2000/svg" fill="none" stroke="currentColor" stroke-width="2" stroke-linecap="round" stroke-linejoin="round" viewBox="0 0 24 24" id="trash">
    <path d="M3 6h18"></path>
    <path d="M19 6v14c0 1-1 2-2 2H7c-1 0-2-1-2-2V6"></path>
    <path d="M8 6V4c0-1 1-2 2-2h4c1 0 2 1 2 2v2"></path>
    <line x1="10" x2="10" y1="11" y2="17"></line>
    <line x1="14" x2="14" y1="11" y2="17"></line>
  </symbol>
  <symbol xmlns="http://www.w3.org/2000/svg" fill="none" stroke="currentColor" stroke-width="2" stroke-linecap="round" stroke-linejoin="round" viewBox="0 0 24 24" id="pencil">
    <path d="M21.174 6.812a1 1 0 0 0-3.986-3.987L3.842 16.174a2 2 0 0 0-.5.83l-1.321 4.352a.5.5 0 0 0 .623.622l4.353-1.32a2 2 0 0 0 .83-.497z"></path>
    <path d="m15 5 4 4"></path>
  </symbol>
  <symbol xmlns="http://www.w3.org/2000/svg" fill="none" stroke="currentColor" stroke-width="2" stroke-linecap="round" stroke-linejoin="round" viewBox="0 0 24 24" id="printer">
    <path d="M6 18H4a2 2 0 0 1-2-2v-5a2 2 0 0 1 2-2h16a2 2 0 0 1 2 2v5a2 2 0 0 1-2 2h-2"></path>
    <path d="M6 9V3a1 1 0 0 1 1-1h10a1 1 0 0 1 1 1v6"></path>
    <rect x="6" y="14" width="12" height="8" rx="1"></rect>
  </symbol>
</svg>
